<?xml version="1.0" encoding="UTF-8" standalone="no"?><!DOCTYPE svg PUBLIC "-//W3C//DTD SVG 1.1//EN" "http://www.w3.org/Graphics/SVG/1.1/DTD/svg11.dtd"><svg width="100%" height="100%" viewBox="0 0 256 256" version="1.1" xmlns="http://www.w3.org/2000/svg" xmlns:xlink="http://www.w3.org/1999/xlink" xml:space="preserve" xmlns:serif="http://www.serif.com/" style="fill-rule:evenodd;clip-rule:evenodd;stroke-linecap:round;stroke-linejoin:round;stroke-miterlimit:1.5;"><circle cx="127.931" cy="127.931" r="127.931" style="fill:#4db7aa;"/><path d="M86.113,76.536c-0.368,-22.451 17.561,-40.977 40.012,-41.345c19.596,-0.321 36.201,13.297 40.353,31.694" style="fill:none;stroke:#fff;stroke-width:10.99px;"/><path d="M126.293,137.576c12.439,-7.872 28.929,-4.163 36.801,8.277c6.87,10.857 4.918,24.8 -3.96,33.405" style="fill:none;stroke:#fff;stroke-width:10.99px;"/><path d="M126.293,137.576c-12.44,-7.872 -28.93,-4.163 -36.802,8.277c-6.87,10.857 -4.918,24.8 3.96,33.405" style="fill:none;stroke:#fff;stroke-width:10.99px;"/><path d="M162.044,69.612c18.602,-12.576 43.914,-7.685 56.491,10.917c10.977,16.235 8.647,37.583 -4.491,51.114" style="fill:none;stroke:#fff;stroke-width:10.99px;"/><path d="M168.887,65.891c20.661,-8.794 44.574,0.839 53.369,21.499c7.676,18.032 1.314,38.543 -14.165,49.317" style="fill:none;stroke:#fff;stroke-width:10.99px;"/><path d="M49.504,137.839c-19.053,-11.882 -24.874,-36.997 -12.992,-56.05c10.371,-16.629 30.823,-23.18 48.526,-16.676" style="fill:none;stroke:#fff;stroke-width:10.99px;"/><path d="M49.473,137.839l18.517,82.838" style="fill:none;stroke:#fff;stroke-width:10.99px;"/><path d="M208.11,136.707l-18.77,83.97" style="fill:none;stroke:#fff;stroke-width:10.99px;"/><path d="M67.99,220.677l49.137,0c4.356,-1.064 7.304,-2.731 9.166,-4.865l32.721,-36.393" style="fill:none;stroke:#fff;stroke-width:10.99px;"/><path d="M189.34,220.677l-53.858,0c-4.356,-1.064 -7.304,-2.731 -9.165,-4.865l-32.721,-36.393" style="fill:none;stroke:#fff;stroke-width:10.99px;"/></svg>