<?xml version="1.0" encoding="UTF-8" standalone="no"?><!DOCTYPE svg PUBLIC "-//W3C//DTD SVG 1.1//EN" "http://www.w3.org/Graphics/SVG/1.1/DTD/svg11.dtd"><svg width="100%" height="100%" viewBox="0 0 273 260" version="1.1" xmlns="http://www.w3.org/2000/svg" xmlns:xlink="http://www.w3.org/1999/xlink" xml:space="preserve" xmlns:serif="http://www.serif.com/" style="fill-rule:evenodd;clip-rule:evenodd;stroke-linecap:round;stroke-linejoin:round;stroke-miterlimit:1.5;"><path d="M80.141,60.849c-0.492,-30.053 23.508,-54.852 53.561,-55.344c26.23,-0.43 48.458,17.799 54.015,42.425" style="fill:none;stroke:#eee;stroke-width:10.99px;"/><path d="M133.925,142.556c16.652,-10.536 38.725,-5.572 49.262,11.08c9.197,14.533 6.584,33.198 -5.301,44.716" style="fill:none;stroke:#eee;stroke-width:10.99px;"/><path d="M133.925,142.556c-16.651,-10.536 -38.725,-5.572 -49.261,11.08c-9.197,14.533 -6.585,33.198 5.301,44.716" style="fill:none;stroke:#eee;stroke-width:10.99px;"/><path d="M181.782,51.581c24.9,-16.835 58.784,-10.288 75.619,14.612c14.694,21.733 11.575,50.31 -6.013,68.421" style="fill:none;stroke:#eee;stroke-width:10.99px;"/><path d="M190.943,46.6c27.655,-11.773 59.666,1.122 71.439,28.778c10.275,24.138 1.759,51.594 -18.962,66.015" style="fill:none;stroke:#eee;stroke-width:10.99px;"/><path d="M31.137,142.909c-25.504,-15.906 -33.297,-49.525 -17.391,-75.029c13.882,-22.26 41.259,-31.027 64.956,-22.322" style="fill:none;stroke:#eee;stroke-width:10.99px;"/><path d="M31.096,142.909l24.787,110.886" style="fill:none;stroke:#eee;stroke-width:10.99px;"/><path d="M243.446,141.393l-25.125,112.402" style="fill:none;stroke:#eee;stroke-width:10.99px;"/><path d="M55.883,253.795l65.773,0c5.832,-1.424 9.778,-3.656 12.269,-6.512l43.8,-48.716" style="fill:none;stroke:#eee;stroke-width:10.99px;"/><path d="M218.321,253.795l-72.094,0c-5.832,-1.424 -9.778,-3.656 -12.269,-6.512l-43.801,-48.716" style="fill:none;stroke:#eee;stroke-width:10.99px;"/></svg>